<svg width="55" height="52" viewBox="0 0 55 52" fill="none" xmlns="http://www.w3.org/2000/svg">
<path fill-rule="evenodd" clip-rule="evenodd" d="M24.3086 0.108398C27.9253 0.108398 30.8572 3.04033 30.8572 6.65704V44.8146C30.8572 48.4313 27.9253 51.3633 24.3086 51.3633H6.84552C3.2288 51.3633 0.296875 48.4313 0.296875 44.8146V6.65704C0.296875 3.04033 3.2288 0.108398 6.84552 0.108398H24.3086ZM24.31 4.47437H6.84694C5.64137 4.47437 4.66406 5.45167 4.66406 6.65725V44.8148C4.66406 46.0204 5.64137 46.9977 6.84694 46.9977H24.31C25.5156 46.9977 26.4929 46.0204 26.4929 44.8148V6.65725C26.4929 5.45167 25.5156 4.47437 24.31 4.47437ZM15.577 37.1662C17.0863 37.1662 18.3099 38.3897 18.3099 39.899C18.3099 41.4083 17.0863 42.6318 15.577 42.6318C14.0677 42.6318 12.8442 41.4083 12.8442 39.899C12.8442 38.3897 14.0677 37.1662 15.577 37.1662Z" fill="#6FFDEA"/>
<mask id="mask0_153_791" style="mask-type:alpha" maskUnits="userSpaceOnUse" x="35" y="9" width="20" height="33">
<rect x="35.1875" y="9.8916" width="18.9466" height="31.6883" fill="#C4C4C4"/>
</mask>
<g mask="url(#mask0_153_791)">
<path fill-rule="evenodd" clip-rule="evenodd" d="M33.3409 15.9481C31.4501 15.9481 29.561 16.6318 28.1214 18.0008C26.7438 19.313 25.9844 21.0539 25.9844 22.9034C25.9844 24.7511 26.7438 26.4921 28.1214 27.8043L39.7606 38.8804L51.3998 27.8043C52.7774 26.4921 53.5369 24.7511 53.5369 22.9034C53.5369 21.0557 52.7774 19.313 51.3998 18.0008C48.5223 15.2628 43.8384 15.2628 40.9609 18.0008L39.7606 19.1442L38.5604 18.0008C37.1207 16.6318 35.2317 15.9481 33.3409 15.9481V15.9481Z" fill="#6FFDEA"/>
</g>
</svg>
