<svg width="52" height="53" viewBox="0 0 52 53" fill="none" xmlns="http://www.w3.org/2000/svg">
<g clip-path="url(#clip0_153_752)">
<path d="M32.6187 10.5127H19.7449C14.6697 10.5127 10.4609 14.804 10.4609 19.9787V32.9787C10.4609 38.1535 14.6697 42.4447 19.7449 42.4447H32.4949C37.5702 42.4447 41.7789 38.1535 41.7789 32.9787V19.9787C41.9027 14.804 37.6939 10.5127 32.6187 10.5127Z" stroke="#6FFDEA" stroke-width="4.46603" stroke-miterlimit="10" stroke-linecap="round" stroke-linejoin="round"/>
<path d="M26.1797 42.5713V50.0179" stroke="#6FFDEA" stroke-width="4" stroke-miterlimit="10" stroke-linecap="round" stroke-linejoin="round"/>
<path d="M17.3906 42.5713V50.0179" stroke="#6FFDEA" stroke-width="4" stroke-miterlimit="10" stroke-linecap="round" stroke-linejoin="round"/>
<path d="M35.0938 42.5713V50.0179" stroke="#6FFDEA" stroke-width="4" stroke-miterlimit="10" stroke-linecap="round" stroke-linejoin="round"/>
<path d="M32.2966 19.1357H20.1831C19.4909 19.1357 18.9141 19.7239 18.9141 20.4297V32.7807C18.9141 33.4864 19.4909 34.0746 20.1831 34.0746H32.2966C32.9888 34.0746 33.5656 33.4864 33.5656 32.7807V20.4297C33.5656 19.7239 32.9888 19.1357 32.2966 19.1357Z" fill="#6FFDEA"/>
<path d="M41.9023 26.542H49.2057" stroke="#6FFDEA" stroke-width="4" stroke-miterlimit="10" stroke-linecap="round" stroke-linejoin="round"/>
<path d="M41.9023 35.6294H49.2057" stroke="#6FFDEA" stroke-width="4" stroke-miterlimit="10" stroke-linecap="round" stroke-linejoin="round"/>
<path d="M41.9023 17.5811H49.2057" stroke="#6FFDEA" stroke-width="4" stroke-miterlimit="10" stroke-linecap="round" stroke-linejoin="round"/>
<path d="M26.1797 10.513V3.06641" stroke="#6FFDEA" stroke-width="4" stroke-miterlimit="10" stroke-linecap="round" stroke-linejoin="round"/>
<path d="M35.0938 10.513V3.06641" stroke="#6FFDEA" stroke-width="4" stroke-miterlimit="10" stroke-linecap="round" stroke-linejoin="round"/>
<path d="M17.3906 10.513V3.06641" stroke="#6FFDEA" stroke-width="4" stroke-miterlimit="10" stroke-linecap="round" stroke-linejoin="round"/>
<path d="M10.4596 26.542H3.15625" stroke="#6FFDEA" stroke-width="4" stroke-miterlimit="10" stroke-linecap="round" stroke-linejoin="round"/>
<path d="M10.4596 17.5811H3.15625" stroke="#6FFDEA" stroke-width="4" stroke-miterlimit="10" stroke-linecap="round" stroke-linejoin="round"/>
<path d="M10.4596 35.6299H3.15625" stroke="#6FFDEA" stroke-width="4" stroke-miterlimit="10" stroke-linecap="round" stroke-linejoin="round"/>
</g>
<defs>
<clipPath id="clip0_153_752">
<rect width="51" height="52" fill="white" transform="translate(0.679688 0.541992)"/>
</clipPath>
</defs>
</svg>
