<svg width="48" height="47" viewBox="0 0 48 47" fill="none" xmlns="http://www.w3.org/2000/svg">
<path fill-rule="evenodd" clip-rule="evenodd" d="M21.5768 37.4751H7.64539C3.79834 37.4751 0.679688 34.3565 0.679688 30.5094V7.29041C0.679688 3.44336 3.79834 0.324707 7.64539 0.324707H40.152C43.9991 0.324707 47.1177 3.44336 47.1177 7.29041V30.5094C47.1177 34.3565 43.9991 37.4751 40.152 37.4751H26.2206V42.1189H41.8058C43.0881 42.1189 44.1277 43.1585 44.1277 44.4408C44.1277 45.7232 43.0881 46.7627 41.8058 46.7627H5.99164C4.70929 46.7627 3.66973 45.7232 3.66973 44.4408C3.66973 43.1585 4.70929 42.1189 5.99164 42.1189H21.5768V37.4751ZM40.1498 4.96864H7.64312C6.36077 4.96864 5.32122 6.00819 5.32122 7.29055V30.5096C5.32122 31.7919 6.36077 32.8315 7.64312 32.8315H40.1498C41.4321 32.8315 42.4717 31.7919 42.4717 30.5096V7.29055C42.4717 6.00819 41.4321 4.96864 40.1498 4.96864Z" fill="#6FFDEA"/>
</svg>
