<svg width="47" height="47" viewBox="0 0 47 47" fill="none" xmlns="http://www.w3.org/2000/svg">
<g clip-path="url(#clip0_265_922)">
<path d="M23.5985 0.324707C19.7192 0.324707 15.9651 1.3258 12.7116 3.07772C11.5853 2.07663 10.0837 1.45094 8.45689 1.45094C4.57764 1.45094 1.44922 4.57937 1.44922 8.45861C1.44922 12.3379 4.57764 15.4663 8.45689 15.4663C12.3361 15.4663 15.4646 12.3379 15.4646 8.45861C15.4646 7.58265 15.3394 6.83183 15.0892 6.08101C17.717 4.82964 20.5952 4.07882 23.7236 4.07882C25.7258 4.07882 27.728 4.45423 29.605 4.95478V1.07553C27.6029 0.574981 25.6007 0.324707 23.5985 0.324707Z" fill="#6FFDEA"/>
<path d="M11.8368 31.7343C10.8357 31.7343 9.95977 32.6102 9.95977 33.6113V37.6157C6.3308 33.9867 4.07833 29.1064 4.07833 23.6004C4.07833 21.7233 4.3286 19.8463 4.82915 18.2195C3.57778 17.7189 2.45155 17.0932 1.57559 16.2173C0.824767 18.5949 0.324219 21.0976 0.324219 23.6004C0.324219 29.8572 2.82696 35.6135 6.95648 39.743H3.07723C2.07614 39.743 1.20018 40.619 1.20018 41.6201C1.20018 42.6212 2.07614 43.4972 3.07723 43.4972H11.8368C12.8379 43.4972 13.7139 42.6212 13.7139 41.6201V33.6113C13.7139 32.6102 12.8379 31.7343 11.8368 31.7343Z" fill="#6FFDEA"/>
<path d="M40.3707 7.45772H44.2499C45.251 7.45772 46.127 6.58176 46.127 5.58067C46.127 4.57957 45.251 3.70361 44.2499 3.70361H35.4903C34.4892 3.70361 33.6133 4.57957 33.6133 5.58067V13.5894C33.6133 14.5905 34.4892 15.4665 35.4903 15.4665C36.4914 15.4665 37.3674 14.5905 37.3674 13.5894V9.71019C40.9964 13.214 43.2488 18.2195 43.2488 23.7255C43.2488 25.3523 42.9986 26.9791 42.6231 28.4807L46.127 29.7321C46.6275 27.7299 47.0029 25.7277 47.0029 23.6004C46.8778 17.3436 44.3751 11.5872 40.3707 7.45772Z" fill="#6FFDEA"/>
<path d="M36.9899 38.7416L31.8592 36.8646C31.4838 36.7394 31.1084 36.9897 31.1084 37.3651V41.6198C28.8559 42.6209 26.2281 43.1214 23.6002 43.1214C21.598 43.1214 19.5958 42.746 17.7188 42.2455V46.1247C19.5958 46.6253 21.598 46.8755 23.6002 46.8755C26.8538 46.8755 29.857 46.2499 32.6101 44.9985L36.6144 46.5001C36.9899 46.6253 37.3653 46.375 37.3653 45.9996V39.2422C37.3653 38.9919 37.115 38.8668 36.9899 38.7416Z" fill="#6FFDEA"/>
<path d="M45.7482 36.8646L40.6176 38.7416C40.3673 38.8668 40.2422 38.9919 40.2422 39.2422V45.9996C40.2422 46.375 40.6176 46.6253 40.993 46.5001L46.1236 44.6231C46.3739 44.4979 46.499 44.3728 46.499 44.1225V37.3651C46.3739 36.9897 45.9985 36.7394 45.7482 36.8646Z" fill="#6FFDEA"/>
<path d="M45.6206 33.2357L38.9883 30.7329C38.8632 30.7329 38.738 30.7329 38.738 30.7329L32.1058 33.2357C31.7304 33.3608 31.7304 33.8613 32.1058 34.1116L38.738 36.6144C38.8632 36.6144 38.9883 36.6144 38.9883 36.6144L45.6206 34.1116C45.996 33.8613 45.996 33.3608 45.6206 33.2357Z" fill="#6FFDEA"/>
</g>
<defs>
<clipPath id="clip0_265_922">
<rect width="46.551" height="46.551" fill="white" transform="translate(0.324219 0.324707)"/>
</clipPath>
</defs>
</svg>
