<svg width="1504" height="291" viewBox="0 0 1504 291" fill="none" xmlns="http://www.w3.org/2000/svg">
<g clip-path="url(#clip0_8_52)">
<path d="M1042.5 18.4097H1072.93C1103.62 18.4097 1121.49 36.0197 1121.49 63.7397C1121.49 91.4597 1103.62 109.07 1072.93 109.07H1042.5V18.4097ZM1072.94 102.2C1099.88 102.2 1113.47 89.2497 1113.47 63.7397C1113.47 38.2297 1099.87 25.2797 1072.94 25.2797H1050.28V102.2H1072.94Z" fill="white"/>
<path d="M1167.86 48.7197V56.3597C1166.44 55.7097 1164.49 55.1897 1160.48 55.1897C1148.18 55.1897 1141.57 66.4597 1141.57 80.1797V109.06H1134.06V49.1097H1141.57V65.6897C1144.16 55.7197 1150.13 47.9497 1161.39 47.9497C1163.73 47.9397 1166.05 47.9397 1167.86 48.7197Z" fill="white"/>
<path d="M1174.33 27.6094C1174.33 24.1094 1176.41 22.1694 1180.3 22.1694C1183.8 22.1694 1185.86 24.1094 1185.99 27.6094C1185.99 31.3694 1184.06 33.4394 1180.3 33.4394C1176.54 33.4394 1174.46 31.3594 1174.33 27.6094ZM1176.42 49.1094H1183.93V109.069H1176.42V49.1094Z" fill="white"/>
<path d="M1251.01 49.1099L1226.53 109.07H1216.69L1192.21 49.1099H1200.76L1221.61 103.76L1242.46 49.1099H1251.01Z" fill="white"/>
<path d="M1257.34 27.6094C1257.34 24.1094 1259.41 22.1694 1263.3 22.1694C1266.8 22.1694 1268.88 24.1094 1269.01 27.6094C1269.01 31.3694 1267.06 33.4394 1263.3 33.4394C1259.54 33.4394 1257.47 31.3594 1257.34 27.6094ZM1259.42 49.1094H1266.93V109.069H1259.42V49.1094Z" fill="white"/>
<path d="M1337.11 72.2898V109.07H1329.6V72.6798C1329.6 60.8898 1323.13 54.6798 1312.78 54.6798C1300.61 54.6798 1291.67 63.9998 1291.67 82.5198V109.07H1284.16V49.1098H1291.67V65.5598C1295.04 54.6798 1302.28 47.8198 1314.58 47.8198C1328.95 47.8098 1337.11 56.3598 1337.11 72.2898Z" fill="white"/>
<path d="M1406.53 49.1096V107C1406.53 122.54 1396.17 132.38 1377.91 132.38C1363.02 132.38 1353.18 126.81 1349.42 114.77L1356.67 111.53C1359.78 122.28 1365.61 125.65 1377.91 125.65C1392.29 125.65 1399.02 119.69 1399.02 107V92.8796C1394.88 101.43 1386.97 106.61 1376.22 106.61C1359.64 106.61 1348.39 94.8196 1348.39 77.2096C1348.39 59.4696 1359.65 47.8096 1376.22 47.8096C1386.97 47.8096 1394.88 52.9896 1399.02 61.5396V49.1096H1406.53ZM1399.67 77.2096C1399.67 62.3196 1392.29 54.6796 1377.91 54.6796C1363.41 54.6796 1356.02 62.3196 1356.02 77.2096C1356.02 91.9696 1363.4 99.6096 1377.65 99.6096C1392.15 99.6096 1399.67 91.9696 1399.67 77.2096Z" fill="white"/>
<path d="M1101.56 139.4H1071.14V222.93H1063.49V139.4H1033.06V132.28H1101.57V139.4H1101.56Z" fill="white"/>
<path d="M1152.33 192.89C1152.33 212.06 1139.38 224.23 1121.51 224.23C1103.64 224.23 1090.69 212.06 1090.69 192.89C1090.69 173.85 1103.64 161.68 1121.51 161.68C1139.38 161.68 1152.33 173.85 1152.33 192.89ZM1144.69 192.89C1144.69 176.83 1136.79 168.54 1121.51 168.54C1106.23 168.54 1098.33 176.83 1098.33 192.89C1098.33 209.08 1106.23 217.37 1121.51 217.37C1136.79 217.36 1144.69 209.08 1144.69 192.89Z" fill="white"/>
<path d="M1216.94 162.969V220.859C1216.94 236.399 1206.58 246.239 1188.32 246.239C1173.43 246.239 1163.59 240.669 1159.83 228.629L1167.08 225.389C1170.19 236.139 1176.02 239.509 1188.32 239.509C1202.7 239.509 1209.43 233.549 1209.43 220.859V206.739C1205.29 215.289 1197.4 220.469 1186.65 220.469C1170.07 220.469 1158.8 208.689 1158.8 191.069C1158.8 173.329 1170.08 161.669 1186.65 161.669C1197.4 161.669 1205.29 166.849 1209.43 175.399V162.969H1216.94ZM1210.08 191.079C1210.08 176.189 1202.7 168.549 1188.32 168.549C1173.82 168.549 1166.43 176.189 1166.43 191.079C1166.43 205.839 1173.81 213.479 1188.06 213.479C1202.57 213.479 1210.08 205.839 1210.08 191.079Z" fill="white"/>
<path d="M1284.67 195.22H1236.37C1237.02 210.63 1243.75 217.62 1257.87 217.62C1268.49 217.62 1273.41 214.38 1276.26 205.45L1283.38 208.17C1279.37 219.18 1269.78 224.23 1257.87 224.23C1240 224.23 1228.73 212.19 1228.73 193.02C1228.73 173.98 1240.52 161.68 1257.48 161.68C1273.8 161.68 1284.68 172.95 1284.68 191.59V195.22H1284.67ZM1236.49 188.87H1277.28C1276.5 174.62 1270.29 168.15 1257.47 168.15C1244.65 168.15 1237.66 175.15 1236.49 188.87Z" fill="white"/>
<path d="M1308.49 169.84V216.07H1325.97V222.93H1312.38C1305.51 222.93 1300.97 218.4 1300.97 211.53V169.83H1286.98V162.97H1300.97V143.29H1308.48V162.97H1328.17V169.83H1308.49V169.84Z" fill="white"/>
<path d="M1390.21 186.15V222.93H1382.7V186.54C1382.7 174.76 1376.22 168.54 1365.86 168.54C1353.69 168.54 1344.76 177.86 1344.76 196.38V222.93H1337.24V132.28H1344.76V179.42C1348.13 168.54 1355.38 161.68 1367.68 161.68C1382.06 161.68 1390.21 170.23 1390.21 186.15Z" fill="white"/>
<path d="M1457.43 195.22H1409.12C1409.77 210.63 1416.51 217.62 1430.62 217.62C1441.24 217.62 1446.17 214.38 1449.02 205.45L1456.14 208.17C1452.13 219.18 1442.53 224.23 1430.62 224.23C1412.75 224.23 1401.48 212.19 1401.48 193.02C1401.48 173.98 1413.27 161.68 1430.23 161.68C1446.55 161.68 1457.43 172.95 1457.43 191.59V195.22H1457.43ZM1409.24 188.87H1450.04C1449.26 174.62 1443.04 168.15 1430.22 168.15C1417.4 168.15 1410.41 175.15 1409.24 188.87Z" fill="white"/>
<path d="M1503.14 162.59V170.23C1501.71 169.58 1499.77 169.06 1495.76 169.06C1483.46 169.06 1476.84 180.33 1476.84 194.05V222.93H1469.33V162.97H1476.84V179.55C1479.43 169.58 1485.4 161.81 1496.66 161.81C1498.99 161.81 1501.33 161.81 1503.14 162.59Z" fill="white"/>
<path d="M972.585 106.17V63.8999L912.825 64.8599V61.6599C933.845 56.9299 932.045 42.1399 932.045 26.9299V17.8999H883.905V63.8999H860.535V106.16H883.905V168.63C883.905 200.87 905.395 222.5 937.635 222.5H972.595V180.23H932.055V106.16H972.585V106.17Z" fill="white"/>
<path d="M495.175 63.8496H446.975V222.46H495.175V63.8496Z" fill="white"/>
<path d="M471.305 2.60986C449.665 2.60986 439.295 10.6399 439.295 27.8099C439.295 44.8599 449.435 53.0199 470.735 53.0199C492.725 53.0199 503.085 44.8599 503.085 27.8099C503.095 10.6499 492.725 2.60986 471.305 2.60986Z" fill="white"/>
<path d="M797.465 60.7798C773.755 60.7798 755.295 74.2598 749.665 98.9598H746.385L747.355 0.509766H699.155V222.46H747.355V145.35V128.34C747.355 113.88 756.765 107 776.265 107C795.655 107 805.055 113.88 805.055 128.34V132.75V147.79V222.45H853.255V129.92C853.245 83.2698 835.245 60.7798 797.465 60.7798Z" fill="white"/>
<path d="M637.295 172.36V169.24C666.355 162.17 681.385 145.77 681.385 122.46C681.385 96.4398 666.325 78.9698 641.305 69.6398V66.6898C672.585 65.8798 680.525 60.8798 680.525 29.8698V28.0098H635.305V30.1598C635.305 56.9198 625.145 61.4998 597.805 61.6398H597.095C547.445 61.6398 513.525 83.8198 513.525 123.03C513.525 144.18 525.885 162.5 558.655 169.79V172.64C529.715 178.46 505.565 193.01 505.565 225.12C505.565 266.55 542.375 289.72 597.475 289.72C651.935 289.72 688.735 266.89 688.735 226.36C688.745 193.31 663.015 178.06 637.295 172.36ZM597.675 100.56C621.865 100.56 633.595 109.15 633.595 127.18C633.595 145.21 621.865 153.79 597.105 153.79C573.065 153.79 561.615 145.21 561.615 127.18C561.615 109.15 573.345 100.56 597.675 100.56ZM597.085 249.13C570.185 249.13 557.295 239.98 557.295 220.63C557.295 200.59 570.175 191.44 596.835 191.44C623.445 191.44 636.325 201.04 636.325 220.93C636.325 240.28 623.445 249.13 597.085 249.13Z" fill="white"/>
<path d="M132.305 182.86H128.255L76.1251 0.589844H0.985107V222.46H48.7451L47.6551 53.3298H51.4551L102.775 222.46H159.375L210.695 53.3298H214.495L213.405 222.46H261.165V0.589844H186.025L132.305 182.86Z" fill="white"/>
<path d="M355.355 60.9097C307.265 60.9097 274.735 94.4297 274.735 144.56C274.735 193.4 307.855 225.73 356.945 225.73C409.715 225.73 426.375 193.95 426.375 193.95L392.805 175.27C392.805 175.27 382.675 188.39 362.515 190.07C362.465 190.07 362.425 190.08 362.375 190.08C361.905 190.12 361.435 190.14 360.955 190.17C360.065 190.21 359.165 190.25 358.235 190.25C332.125 190.25 321.435 171.82 321.435 158.54H432.835C433.085 151.53 433.085 147.4 433.085 141.93C433.095 93.0897 402.105 60.9097 355.355 60.9097ZM321.535 126.71C321.535 108.31 333.745 96.0697 355.665 96.0697C377.375 96.0697 387.865 108.3 387.865 126.71H321.535Z" fill="white"/>
</g>
<defs>
<clipPath id="clip0_8_52">
<rect width="1502.27" height="290.22" fill="white" transform="translate(0.86499)"/>
</clipPath>
</defs>
</svg>
